# xmcd
#
# Track frame offsets:
#  150
#  16392
#  30904
#  47237
#  61885
#  76958
#  93796
#  109752
#  124407
#  143447
#
# Disc length: 2102 seconds
#
# Revision: 0
# Processed by: cddbd v1.5.1PL2 Copyright (c) Steve Scherf et al.
# Submitted via: Collectorz.com_Music_Collector 6.11
#
DISCID=7408340a
DTITLE=Harold Melvin and The Blue Notes - Greatest Hits
DYEAR=1900
DGENRE=
TTITLE0=The Love I Lost
TTITLE1=Where Are All My Friends
TTITLE2=If You Don't Know Me By Now
TTITLE3=Bad Luck
TTITLE4=Satisfaction Guaranteed
TTITLE5=Hope That We Can Be Together Soon
TTITLE6=Wake Up Everybody
TTITLE7=I Miss You
TTITLE8=Could It Be I'm Falling In Love
TTITLE9=Tell The World How I Feel About 'Cha Baby
EXTD=
EXTT0=
EXTT1=
EXTT2=
EXTT3=
EXTT4=
EXTT5=
EXTT6=
EXTT7=
EXTT8=
EXTT9=
PLAYORDER=
